<?xml version="1.0" encoding="UTF-8" standalone="no"?>
<svg
   viewBox="0 0 1056 496.00003"
   height="496"
   width="1056"
   xml:space="preserve"
   id="svg2"
   version="1.1"
   sodipodi:docname="lyon-craft.svg"
   inkscape:version="1.4 (e7c3feb100, 2024-10-09)"
   xmlns:inkscape="http://www.inkscape.org/namespaces/inkscape"
   xmlns:sodipodi="http://sodipodi.sourceforge.net/DTD/sodipodi-0.dtd"
   xmlns="http://www.w3.org/2000/svg"
   xmlns:svg="http://www.w3.org/2000/svg"
   xmlns:rdf="http://www.w3.org/1999/02/22-rdf-syntax-ns#"
   xmlns:cc="http://creativecommons.org/ns#"
   xmlns:dc="http://purl.org/dc/elements/1.1/"><sodipodi:namedview
     id="namedview1"
     pagecolor="#ffffff"
     bordercolor="#999999"
     borderopacity="1"
     inkscape:showpageshadow="0"
     inkscape:pageopacity="0"
     inkscape:pagecheckerboard="0"
     inkscape:deskcolor="#d1d1d1"
     inkscape:zoom="0.26668842"
     inkscape:cx="-320.59885"
     inkscape:cy="761.1879"
     inkscape:window-width="1920"
     inkscape:window-height="1008"
     inkscape:window-x="0"
     inkscape:window-y="1080"
     inkscape:window-maximized="1"
     inkscape:current-layer="svg2" /><metadata
     id="metadata8"><rdf:RDF><cc:Work
         rdf:about=""><dc:format>image/svg+xml</dc:format><dc:type
           rdf:resource="http://purl.org/dc/dcmitype/StillImage" /></cc:Work></rdf:RDF></metadata><defs
     id="defs6"><clipPath
       id="clipPath18"
       clipPathUnits="userSpaceOnUse"><path
         id="path16"
         d="M 0,1000 H 1000 V 0 H 0 Z" /></clipPath></defs><g
     transform="matrix(1.3333333,0,0,-1.3333333,-138.854,916.15824)"
     id="g10"><g
       id="g12"><g
         clip-path="url(#clipPath18)"
         id="g14"><g
           transform="translate(318.7188,325.5317)"
           id="g20"><path
             id="path22"
             style="fill:#000000;fill-opacity:1;fill-rule:nonzero;stroke:none"
             d="m 0,0 c -8.758,-8.636 -20.071,-12.651 -32.357,-12.651 -31.626,0 -45.007,21.774 -45.128,43.913 -0.122,22.261 14.354,44.886 45.128,44.886 11.556,0 22.504,-4.379 31.262,-13.017 L -11.799,52.793 c -5.596,5.473 -13.138,8.028 -20.558,8.028 -20.557,0 -29.437,-15.328 -29.315,-29.559 0.121,-14.111 8.271,-28.828 29.315,-28.828 7.42,0 15.814,3.04 21.409,8.636 z" /></g><g
           transform="translate(373.0793,385.0142)"
           id="g24"><path
             id="path26"
             style="fill:#000000;fill-opacity:1;fill-rule:nonzero;stroke:none"
             d="m 0,0 v -27.247 h 24.45 c 10.218,0 14.597,6.811 14.597,13.624 C 39.047,-6.811 34.546,0 24.45,0 Z M 59.36,-70.187 H 40.263 L 15.448,-41.723 H 0 v -28.464 h -16.057 v 85.27 c 13.502,0 27.005,-0.121 40.507,-0.121 20.07,-0.122 30.653,-13.502 30.653,-28.221 0,-11.677 -5.352,-23.477 -21.531,-26.76 L 59.36,-69.091 Z" /></g><g
           transform="translate(506.3857,382.095)"
           id="g28"><path
             id="path30"
             style="fill:#000000;fill-opacity:1;fill-rule:nonzero;stroke:none"
             d="m 0,0 -15.813,-36.249 h 31.626 z m 22.26,-51.21 h -44.521 l -7.298,-16.058 H -46.955 L -8.758,17.881 H 8.758 L 46.953,-67.268 H 29.436 Z" /></g><g
           transform="translate(588.4809,314.8275)"
           id="g32"><path
             id="path34"
             style="fill:#000000;fill-opacity:1;fill-rule:nonzero;stroke:none"
             d="M 0,0 V 85.027 H 61.186 V 69.578 H 16.057 V 46.345 H 58.753 V 31.506 H 16.057 V 0 Z" /></g><g
           transform="translate(715.707,385.3799)"
           id="g36"><path
             id="path38"
             style="fill:#000000;fill-opacity:1;fill-rule:nonzero;stroke:none"
             d="M 0,0 H -27.006 V 14.596 H 43.06 V 0 H 16.056 V -70.552 H 0 Z" /></g><g
           transform="translate(145.3665,669.7844)"
           id="g40"><path
             id="path42"
             style="fill:#000000;fill-opacity:1;fill-rule:nonzero;stroke:none"
             d="m 0,0 v -180.519 h 112.434 v -38.102 H -41.226 V 0 Z" /></g><g
           transform="translate(339.9381,579.5259)"
           id="g44"><path
             id="path46"
             style="fill:#000000;fill-opacity:1;fill-rule:nonzero;stroke:none"
             d="m 0,0 58.091,90.259 h 49.658 V 88.386 L 20.612,-38.102 v -90.26 h -41.226 v 90.26 l -84.012,126.488 v 1.873 h 49.034 z" /></g><g
           transform="translate(854.6335,670.0981)"
           id="g48"><path
             id="path50"
             style="fill:#000000;fill-opacity:1;fill-rule:nonzero;stroke:none"
             d="M 0,0 H 41.225 V -218.935 H 15.616 v -0.312 L -99.317,-71.522 v -147.413 h -41.227 V -0.314 h 33.418 L 0,-135.859 Z" /></g><g
           transform="translate(650.2964,496.2487)"
           id="g52"><path
             id="path54"
             style="fill:#000000;fill-opacity:1;fill-rule:nonzero;stroke:none"
             d="m 0,0 c -3.616,19.28 -8.773,37.477 -17.373,56.375 -1.405,-5.63 0.411,-9.723 -0.172,-13.84 -3.7,7.992 -6.65,16.245 -11.959,23.82 5.254,9.226 10.046,18.641 13.768,28.694 C -7.001,87.937 0.062,72.764 5.248,51.391 8.268,67.649 4.217,82.927 -2.5,98.817 26.416,70.861 28.069,28.706 0,0 m -41.903,67.498 c -6.817,-11.254 -15.869,-13.11 -27.032,-6.038 -3.732,2.365 -6.984,5.279 -9.731,8.738 -0.507,3.54 -0.79,6.954 1.449,10.361 5.59,3.354 13.416,3.687 17.069,10.504 1.162,2.169 0.954,4.471 -0.756,6.433 -2.124,1.581 -3.315,-0.93 -5.381,-1.048 -1.109,1.006 -2.44,2.211 -3.996,3.62 -7.474,-0.66 -15.059,-1.922 -21.261,0.012 -3.416,-0.459 -4.201,-2.402 -5.488,-3.452 -2.143,-0.721 -3.21,2.098 -5.44,1.162 -2.503,-2.343 -2.293,-5.101 -0.475,-7.926 1.56,-2.423 3.979,-3.863 6.51,-5.012 3.142,-1.425 6.385,-2.627 9.277,-3.801 3.076,-3.123 2.171,-6.711 2.448,-10.132 -3.461,-4.94 -7.919,-8.531 -13.136,-11.144 -9.1,-4.558 -16.607,-2.846 -22.454,5.434 -2.918,4.133 -5.256,8.694 -7.658,13.167 -3.717,6.92 -7.271,13.927 -10.88,20.904 -0.741,1.433 -1.425,2.895 -2.065,4.202 -0.198,3.042 3.177,4.626 2.771,7.782 -3.952,0.758 -6.713,-2.584 -10.27,-2.84 -0.021,-0.048 -0.045,-0.09 -0.066,-0.138 l -0.27,-0.304 0.132,0.423 c 0.069,0.002 0.135,0.014 0.204,0.019 4.91,11.189 14.717,15.767 25.742,19.235 4.109,-3.741 7.248,-8.645 13.363,-9.509 -0.416,-5.461 -3.443,-9.848 -3.371,-15.171 4.296,6.097 8.815,12.066 11.613,18.989 1.765,4.37 -0.981,8.776 -6.35,10.674 -8.008,2.831 -16.21,3.687 -24.506,1.046 -2.201,-0.701 -4.404,-1.396 -6.606,-2.093 -0.31,-0.113 -0.62,-0.225 -0.93,-0.338 0.106,0.314 0.218,0.622 0.329,0.931 5.063,13.368 15.189,21.639 27.236,26.977 1.571,1.861 -1.064,2.123 -0.104,3.723 6.213,4.497 13.602,4.222 20.893,2.916 6.231,-1.117 12.236,-1.107 18.46,0.011 7.307,1.311 14.676,1.488 20.808,-2.837 1.054,-1.745 -1.61,-1.954 -0.126,-3.769 12.13,-5.368 22.235,-13.655 27.305,-27.015 0.114,-0.309 0.228,-0.619 0.342,-0.928 -0.315,0.107 -0.624,0.219 -0.933,0.331 -9.236,3.754 -18.651,4.767 -28.357,2 -9.571,-2.73 -11.746,-7.811 -6.804,-16.357 2.648,-4.579 5.465,-9.061 8.25,-13.559 0.206,-0.333 0.768,-0.445 1.677,-0.936 -0.452,5.325 -3.383,9.668 -4.008,15.089 5.534,1.396 9.259,5.379 13.068,9.834 11.11,-3.279 20.977,-7.934 26.058,-19.225 0.067,-0.007 0.133,-0.019 0.202,-0.024 l 0.134,-0.433 -0.27,0.32 c -0.021,0.047 -0.045,0.089 -0.066,0.137 -3.54,0.328 -6.371,3.418 -10.269,2.946 -0.37,-3.085 2.442,-4.567 2.833,-7.757 C -28.66,91.791 -34.73,79.34 -41.903,67.498 M -52.244,20.913 c -2.107,-9.607 -6.593,-18.135 -11.959,-26.121 -2.895,-0.304 -1.097,2.807 -4.109,3.32 -4.027,-1.403 -8.111,-5.326 -13.484,-7.569 -4.98,1.789 -9.127,5.694 -14.055,7.815 -2.416,-0.226 -1.183,-2.869 -3.42,-3.986 -5.7,8.464 -10.344,17.17 -12.356,27.043 -3.598,17.664 8.177,32.421 26.193,32.735 7.316,0.127 14.692,0.847 21.356,-3.831 10.337,-7.257 14.548,-17.036 11.834,-29.406 m -93.911,21.596 c -0.695,4.19 1.278,8.192 -0.34,14.012 -4.509,-10.233 -7.612,-19.3 -10.612,-28.41 -2.947,-8.948 -4.42,-18.279 -6.57,-27.812 -25.899,24.985 -28.861,67.035 2.197,98.726 -2.956,-8.618 -6.154,-15.873 -7.366,-23.678 -1.237,-7.964 -2.22,-15.942 0.03,-24.101 2.492,16.512 9.333,30.942 20.339,44.87 4.146,-10.703 8.609,-20.236 14.235,-29.604 -5.071,-7.55 -8.415,-15.79 -11.913,-24.003 m 8.468,107.165 c -3.669,-5.119 -7.409,-8.673 -9.932,-13.063 -2.55,-4.436 -3.989,-9.302 -5.72,-14.228 -7.943,-4.78 -13.393,-12.426 -20.49,-18.536 -2.984,16.632 13.593,38.091 36.142,45.827 M 10.338,103.726 c -7.287,5.986 -12.59,13.784 -20.872,18.633 -2.473,9.933 -7.306,18.703 -15.471,26.247 22.161,-3.607 38.232,-29.308 36.343,-44.88 m -36.789,76.063 c 4.829,-6.41 9.483,-16.451 10.494,-24.052 -15.075,11.43 -30.493,20.55 -50.01,19.298 3.886,4.968 13.848,9.808 21.901,11.507 -6.413,1.937 -13.034,3.392 -19.822,4.328 -6.655,-3.557 -12.599,-8.347 -17.855,-14.629 -4.797,4.787 -9.253,9.419 -14.773,12.756 -1.131,0.684 -2.299,1.289 -3.495,1.858 -6.733,-0.934 -13.302,-2.379 -19.666,-4.298 7.975,-1.848 15.222,-5.392 23.162,-10.775 -10.2,-1.116 -19.3,-1.538 -27.678,-5.318 -8.248,-3.721 -15.499,-9.093 -23.556,-13.574 1.982,8.527 5.433,16.187 10.6,22.989 -44.549,-20.819 -75.42,-66.021 -75.42,-118.441 0,-62.667 44.116,-115.021 102.983,-127.724 -9.789,8.057 -19.027,16.614 -26.981,26.519 -4.505,5.609 -8.257,11.694 -11.016,18.353 -5.216,12.591 -5.207,25.162 0.297,37.67 5.188,11.79 13.304,21.435 23.108,31.784 -2.68,-22.072 -6.531,-42.783 -1.978,-63.505 4.074,-18.543 12.505,-35.327 21.666,-51.819 4.989,-0.869 10.075,-1.455 15.241,-1.742 -13.515,21.107 -23.381,42.998 -27.403,67.93 3.218,-1.027 3.902,-3.485 5.387,-5.141 19.962,-22.261 38.813,-22.374 58.827,0.15 1.355,1.524 2.552,3.189 3.822,4.788 0.466,-0.151 0.932,-0.302 1.398,-0.453 -3.93,-24.436 -13.837,-46.221 -27.278,-67.271 5.198,0.29 10.315,0.882 15.334,1.762 21.964,35.062 29.721,72.755 19.603,114.164 12.609,-12.528 23.931,-25.432 26.772,-43.405 1.52,-9.61 -0.34,-18.854 -4.566,-27.616 -3.947,-8.185 -9.177,-15.472 -15.347,-22.115 -6.672,-7.183 -13.812,-13.842 -21.531,-20.059 58.88,12.693 103.009,65.054 103.009,127.73 0,52.345 -30.782,97.493 -75.229,118.351" /></g><path
           id="path56"
           style="fill:#000000;fill-opacity:1;fill-rule:nonzero;stroke:none"
           d="M 895.859,355.346 H 776.951 v 4.842 h 118.908 z" /><path
           id="path58"
           style="fill:#000000;fill-opacity:1;fill-rule:nonzero;stroke:none"
           d="M 223.048,355.346 H 104.141 v 4.842 h 118.907 z" /></g></g></g></svg>
